<?xml version="1.0" standalone="no"?>
<!DOCTYPE svg PUBLIC "-//W3C//DTD SVG 20010904//EN"
 "http://www.w3.org/TR/2001/REC-SVG-20010904/DTD/svg10.dtd">
<svg version="1.0" xmlns="http://www.w3.org/2000/svg"
 width="140.000000pt" height="40.000000pt" viewBox="0 0 140.000000 40.000000"
 preserveAspectRatio="xMidYMid meet">

<g transform="translate(0.000000,40.000000) scale(0.100000,-0.100000)"
fill="#000000" stroke="none">
<path d="M330 200 l0 -151 148 3 147 3 0 145 0 145 -147 3 -148 3 0 -151z m90
58 c0 -39 1 -40 18 -25 10 10 31 17 46 17 l27 0 -25 -33 -26 -34 26 -34 25
-34 -26 -3 c-15 -2 -35 4 -46 14 -17 16 -19 16 -19 1 0 -12 -9 -17 -30 -17
l-30 0 0 95 0 95 30 0 c29 0 30 -2 30 -42z m160 22 c0 -15 -7 -20 -25 -20 -18
0 -25 5 -25 20 0 15 7 20 25 20 18 0 25 -5 25 -20z m0 -100 c0 -68 -1 -70 -25
-70 -24 0 -25 2 -25 70 0 68 1 70 25 70 24 0 25 -2 25 -70z"/>
<path d="M820 205 c0 -97 1 -105 20 -105 16 0 19 8 22 58 3 53 5 57 28 57 23
0 25 -4 28 -57 3 -50 6 -58 22 -58 18 0 20 7 20 58 0 44 -5 63 -18 75 -22 20
-53 22 -70 5 -9 -9 -12 -3 -12 30 0 35 -3 42 -20 42 -19 0 -20 -7 -20 -105z"/>
<path d="M60 265 c0 -8 -7 -15 -15 -15 -8 0 -15 -7 -15 -15 0 -8 7 -15 15 -15
11 0 15 -13 15 -54 0 -40 4 -55 16 -60 27 -10 44 -7 44 9 0 8 -4 15 -10 15 -5
0 -10 20 -10 45 0 33 4 45 15 45 8 0 15 7 15 15 0 8 -7 15 -15 15 -8 0 -15 7
-15 15 0 8 -9 15 -20 15 -11 0 -20 -7 -20 -15z"/>
<path d="M170 192 c0 -44 5 -63 18 -75 22 -20 53 -22 70 -5 9 9 12 9 12 0 0
-7 9 -12 20 -12 18 0 20 7 20 75 0 68 -2 75 -20 75 -16 0 -19 -8 -22 -57 -3
-54 -5 -58 -28 -58 -23 0 -25 4 -28 58 -3 49 -6 57 -22 57 -18 0 -20 -7 -20
-58z"/>
<path d="M666 237 c-29 -21 -17 -58 23 -72 19 -6 37 -17 39 -23 5 -15 -30 -16
-45 -1 -6 6 -19 9 -29 7 -17 -3 -17 -5 4 -26 26 -26 74 -29 97 -6 24 24 15 47
-27 67 -48 24 -49 40 -3 31 39 -7 48 8 16 26 -27 14 -54 13 -75 -3z"/>
<path d="M1050 243 c-25 -9 -40 -35 -40 -70 0 -68 76 -98 125 -48 59 58 -5
147 -85 118z m61 -44 c16 -31 -4 -71 -33 -67 -25 4 -38 35 -27 66 11 28 45 29
60 1z"/>
<path d="M1200 150 c0 -93 1 -100 20 -100 16 0 20 7 20 34 0 34 1 34 29 23 58
-21 111 46 80 101 -22 39 -44 48 -79 35 -16 -6 -30 -7 -30 -2 0 5 -9 9 -20 9
-19 0 -20 -7 -20 -100z m108 58 c7 -7 12 -21 12 -33 0 -46 -53 -62 -71 -21
-21 45 26 87 59 54z"/>
<path d="M1012 58 c2 -15 10 -23 23 -23 30 0 27 39 -3 43 -20 3 -23 0 -20 -20z"/>
</g>
</svg>
